# xmcd
#
# Track frame offsets:
#	150
#	11958
#	26698
#	44613
#	55002
#	70591
#	87774
#	101815
#	126795
#	140220
#	154047
#	166538
#	175250
#	197145
#	211912
#	226898
#	245380
#	258631
#
# Disc length: 3629 seconds
#
# Revision: 10
# Processed by: cddbd v1.5.2PL0 Copyright (c) Steve Scherf et al.
# Submitted via: EZCDAudioConverter 7.0.6.1
#
DISCID=f70e2b12
DTITLE=The Beatles - Sgt. Pepper's Lonely Hearts Club Band 2/2
DYEAR=2017
DGENRE=
TTITLE0=Sgt. Pepper's Lonely Hearts Club Band [Take 9]
TTITLE1=With A Little Help From My Friends [Take 1 - False Start and Take 2 - In
TTITLE1=strumental]
TTITLE2=Lucy In The Sky With Diamonds [Take 1]
TTITLE3=Getting Better [Take 1 - Instrumental]
TTITLE4=Fixing A Hole [Take 3]
TTITLE5=She's Leaving Home [Take 1 - Instrumental]
TTITLE6=Being For The Benefit Of Mr. Kite! [Take 4]
TTITLE7=Within You Without You [Take 1 - Indian Instruments]
TTITLE8=When I'm Sixty-Four [Take 2]
TTITLE9=Lovely Rita [Take 9]
TTITLE10=Good Morning Good Morning [Take 8]
TTITLE11=Sgt. Pepper's Lonely Hearts Club Band (Reprise) [Take 8]
TTITLE12=A Day In The Life [Take 1 and Hummed Last Chord]
TTITLE13=Strawberry Fields Forever [Take 7]
TTITLE14=Strawberry Fields Forever [Take 26]
TTITLE15=Strawberry Fields Forever [Stereo Mix 2015]
TTITLE16=Penny Lane [Take 6 - Instrumental]
TTITLE17=Penny Lane [Stereo Mix 2017]
EXTD=
EXTT0=
EXTT1=
EXTT2=
EXTT3=
EXTT4=
EXTT5=
EXTT6=
EXTT7=
EXTT8=
EXTT9=
EXTT10=
EXTT11=
EXTT12=
EXTT13=
EXTT14=
EXTT15=
EXTT16=
EXTT17=
PLAYORDER=
